Coordinates
version=1
nRows=16
nColumns=42
inDegrees=yes

Units are S.I. units (second, meters, Newtons, ...)
If the header above contains a line with 'inDegrees', this indicates whether rotational values are in degrees (yes) or radians (no).

endheader
time	pelvis_tilt	pelvis_list	pelvis_rotation	pelvis_tx	pelvis_ty	pelvis_tz	hip_flexion_r	hip_adduction_r	hip_rotation_r	knee_angle_r	knee_adduction_r	knee_angle_r_beta	ankle_angle_r	subtalar_angle_r	mtp_angle_r	hip_flexion_l	hip_adduction_l	hip_rotation_l	knee_angle_l	knee_adduction_l	knee_angle_l_beta	ankle_angle_l	subtalar_angle_l	mtp_angle_l	lumbar_extension	lumbar_bending	lumbar_rotation	arm_flex_r	arm_add_r	arm_rot_r	elbow_flex_r	pro_sup_r	wrist_flex_r	wrist_dev_r	arm_flex_l	arm_add_l	arm_rot_l	elbow_flex_l	pro_sup_l	wrist_flex_l	wrist_dev_l
      1.52000000	      8.80037562	     -2.78782147	     -3.26653024	      0.29070289	      0.95863881	      0.30736762	     12.49526575	      6.32702093	     -6.35350483	     24.43948531	     -3.57223139	      0.42654949	     13.16331425	      5.39537874	     -7.52045783	    -16.94696181	     -2.65922296	    -18.08783010	     49.20365800	     -9.64769035	      0.85876584	      0.70001891	      8.72832053	     -7.52045783	    -22.38098069	      4.26984322	     -3.69264544	     -5.33494809	     -6.80655564	      3.29960424	     29.01419225	     90.00000001	      0.00000000	      0.00000000	      0.93244626	    -12.07118851	     -3.13828925	     43.69804025	     90.00000001	      0.00000000	      0.00000000
      1.53000000	      8.78864727	     -2.43571203	     -3.52323647	      0.30489624	      0.96206829	      0.30834765	     11.32116330	      5.95024550	     -6.45858357	     24.00577846	     -3.62596763	      0.41897987	     14.08990412	      6.80072368	     -7.51931331	    -15.06725989	     -2.33473759	    -17.67903820	     51.51095697	     -9.75070602	      0.89903580	      0.53851477	      4.98054402	     -7.51931331	    -22.45330662	      3.69997183	     -3.25525819	     -4.72933605	     -7.07342796	      4.00499004	     29.29848381	     90.00000001	      0.00000000	      0.00000000	      0.71449643	    -12.00285976	     -1.86416498	     42.24441277	     90.00000001	      0.00000000	      0.00000000
      1.54000000	      8.72576638	     -2.21556295	     -3.76132601	      0.31898571	      0.96529673	      0.30941827	     10.07936109	      5.76170084	     -6.30434544	     23.31374093	     -3.63864979	      0.40690154	     14.80641677	      7.71770894	     -7.51864755	    -13.05058200	     -2.30249745	    -18.31675081	     53.49229510	    -10.40527615	      0.93361667	      1.37775359	      3.61422588	     -7.51864755	    -22.47247222	      3.26580588	     -2.82281364	     -4.11522219	     -7.29984261	      4.32477643	     29.64593627	     90.00000001	      0.00000000	      0.00000000	      0.14765747	    -11.81244658	     -1.34938504	     41.68069505	     90.00000001	      0.00000000	      0.00000000
      1.55000000	      8.63552987	     -1.92055349	     -3.98676844	      0.33298483	      0.96846236	      0.31038895	      8.84031659	      5.49364864	     -6.12916800	     22.54147236	     -3.69353572	      0.39342291	     15.46086317	      8.60936099	     -7.51811499	    -10.98698592	     -2.19374070	    -19.01678739	     55.09889326	    -11.04250915	      0.96165710	      2.36435736	      2.41850392	     -7.51811499	    -22.42875840	      2.75547883	     -2.47312659	     -3.47257092	     -7.51219047	      4.62043465	     29.99701948	     90.00000001	      0.00000000	      0.00000000	     -0.40217367	    -11.64972214	     -0.82786306	     40.93392834	     90.00000001	      0.00000000	      0.00000000
      1.56000000	      8.53216547	     -1.58394059	     -4.21552977	      0.34686681	      0.97148432	      0.31130153	      7.61149841	      5.14994127	     -5.96859987	     21.72094350	     -3.71521113	      0.37910198	     16.02999167	      9.45912713	     -7.51767680	     -8.90797786	     -2.01631440	    -19.69647051	     56.31812517	    -11.60760674	      0.98293671	      3.46524927	      1.42583146	     -7.51767680	    -22.35094025	      2.20357398	     -2.14575807	     -2.82578213	     -7.70571855	      4.90066732	     30.36575989	     90.00000001	      0.00000000	      0.00000000	     -0.95683194	    -11.51640935	     -0.33701302	     40.20650944	     90.00000001	      0.00000000	      0.00000000
      1.57000000	      8.40805084	     -1.21907171	     -4.45844894	      0.36068529	      0.97434127	      0.31212571	      6.41542212	      4.74610282	     -5.87252569	     20.87173732	     -3.72793916	      0.36428054	     16.59379663	     10.40139515	     -7.51718988	     -6.82337813	     -1.79710760	    -20.33074944	     57.17470397	    -12.03617284	      0.99788683	      4.61882286	      0.56019668	     -7.51718988	    -22.23335777	      1.63243708	     -1.79261901	     -2.23337869	     -7.95593661	      5.27248274	     30.75020337	     90.00000001	      0.00000000	      0.00000000	     -1.50435372	    -11.36518358	      0.26198770	     39.41788480	     90.00000001	      0.00000000	      0.00000000
      1.58000000	      8.29150128	     -0.78878270	     -4.59050834	      0.37443876	      0.97703941	      0.31288336	      5.20053433	      4.25281427	     -5.96421877	     19.95228137	     -3.74016835	      0.34823300	     16.87810940	     10.85179333	     -7.51695274	     -4.74487618	     -1.49318920	    -20.72558327	     57.65423185	    -12.32069000	      1.00625617	      5.60267086	      0.06549061	     -7.51695274	    -22.11241505	      0.99003412	     -1.63229755	     -1.59351202	     -8.06357169	      5.40203545	     31.18277921	     90.00000001	      0.00000000	      0.00000000	     -2.16889430	    -11.29747362	      0.49847258	     38.95996938	     90.00000001	      0.00000000	      0.00000000
      1.59000000	      8.11078465	     -0.43938068	     -4.82238909	      0.38814888	      0.97938192	      0.31362928	      4.04507716	      3.86296653	     -5.82274077	     19.00106394	     -3.72945993	      0.33163113	     17.26561354	     11.48255200	     -7.51671258	     -2.64887428	     -1.29694734	    -21.20480103	     57.83430375	    -12.44066977	      1.00939902	      6.82672189	     -0.55074387	     -7.51671258	    -21.90861540	      0.44820310	     -1.34204495	     -0.98795590	     -8.26033298	      5.56777681	     31.60343714	     90.00000001	      0.00000000	      0.00000000	     -2.85718711	    -11.14795905	      0.80190298	     38.41780939	     90.00000001	      0.00000000	      0.00000000
      1.60000000	      7.98304070	     -0.18735371	     -5.15943365	      0.40178595	      0.98145337	      0.31441941	      2.84468660	      3.56462186	     -5.53878684	     18.06886285	     -3.68467739	      0.31536115	     17.82967065	     12.49895783	     -7.51633322	     -0.68675882	     -1.22139104	    -21.58962793	     57.73695141	    -12.25697627	      1.00769990	      8.18093022	     -1.25168233	     -7.51633322	    -21.76925638	      0.00134004	     -0.88428761	     -0.40840206	     -8.59390075	      5.98707423	     32.12857140	     90.00000001	      0.00000000	      0.00000000	     -3.43623587	    -10.98216400	      1.35724816	     37.66124737	     90.00000001	      0.00000000	      0.00000000
      1.61000000	      7.83459658	      0.12469834	     -5.38588172	      0.41545871	      0.98320746	      0.31513617	      1.78457085	      3.18013900	     -5.89983383	     17.30686924	     -3.76212577	      0.30206185	     18.02268427	     12.71479219	     -7.51616524	      1.25744652	     -1.08905560	    -21.74671823	     57.26916489	    -11.90941078	      0.99953549	      8.76925943	     -1.49215105	     -7.51616524	    -21.58466693	     -0.50069663	     -0.57773245	      0.15948382	     -8.81170694	      6.06852444	     32.55074346	     90.00000001	      0.00000000	      0.00000000	     -4.18092275	    -10.80040857	      1.52864156	     37.32571024	     90.00000001	      0.00000000	      0.00000000
      1.62000000	      7.74301657	      0.39701215	     -5.60143380	      0.42908551	      0.98463666	      0.31570636	      0.57901573	      2.80829711	     -6.10969019	     16.34077178	     -3.77284839	      0.28520027	     18.81055599	     14.74272753	     -7.51487272	      3.07265345	     -0.87718293	    -21.32511927	     56.58722682	    -11.18985749	      0.98763342	      9.92405882	     -2.87261637	     -7.51487272	    -21.47043432	     -0.93096818	     -0.24199895	      0.47046682	     -9.47857740	      7.84489896	     33.74686015	     90.00000001	      0.00000000	      0.00000000	     -4.73187382	    -10.88079303	      2.78654255	     36.51772439	     90.00000001	      0.00000000	      0.00000000
      1.63000000	      7.55357631	      0.61953304	     -5.79776246	      0.44272338	      0.98560249	      0.31626390	     -0.50497458	      2.53189889	     -6.16570491	     15.45299204	     -3.77694958	      0.26970559	     19.13067580	     15.10497646	     -7.51464319	      4.94820442	     -0.79471402	    -21.35886901	     55.54899462	    -10.74891274	      0.96951285	     10.66343021	     -3.22306938	     -7.51464319	    -21.23713382	     -1.29611105	     -0.02850465	      1.06358244	     -9.64936294	      7.88933303	     34.21603197	     90.00000001	      0.00000000	      0.00000000	     -5.56161170	    -10.71996095	      2.86037046	     36.25541713	     90.00000001	      0.00000000	      0.00000000
      1.64000000	      7.47172904	      0.77779202	     -6.03586483	      0.45641093	      0.98630247	      0.31676597	     -1.74649314	      2.29780840	     -6.03537025	     14.50203071	     -3.72185079	      0.25310818	     19.58944263	     15.71912306	     -7.51434928	      6.58223630	     -0.75866923	    -21.16918727	     54.22006807	    -10.04502955	      0.94631871	     11.42768024	     -3.74041635	     -7.51434928	    -21.13630259	     -1.58760103	      0.30094391	      1.58554618	     -9.90426652	      8.01272408	     34.87676186	     90.00000001	      0.00000000	      0.00000000	     -6.34552542	    -10.52711335	      2.94122851	     35.92168570	     90.00000001	      0.00000000	      0.00000000
      1.65000000	      7.38079681	      0.91467326	     -6.21407509	      0.47010973	      0.98663480	      0.31720841	     -2.94101406	      2.10170148	     -6.04550918	     13.62822637	     -3.73176184	      0.23785742	     20.03591337	     16.28453305	     -7.51404873	      8.14018792	     -0.72932854	    -20.91914755	     52.56965278	     -9.33089125	      0.91751353	     11.95952853	     -4.25885576	     -7.51404873	    -21.02921910	     -1.85862816	      0.56481047	      2.01807797	    -10.18941963	      8.17146798	     35.60683281	     90.00000001	      0.00000000	      0.00000000	     -7.08450732	    -10.32267652	      2.99734271	     35.58980426	     90.00000001	      0.00000000	      0.00000000
      1.66000000	      7.37455081	      0.99537578	     -6.40730828	      0.48385508	      0.98668107	      0.31757396	     -4.21235322	      1.94345927	     -6.07900842	     12.80642012	     -3.75555597	      0.22351420	     20.57122733	     17.01930872	     -7.51363871	      9.46779151	     -0.74879638	    -20.62649298	     50.60220158	     -8.53217851	      0.88317503	     12.30527772	     -4.90182869	     -7.51363871	    -21.01225994	     -2.05355644	      0.88467929	      2.39782642	    -10.56392840	      8.49279080	     36.53031860	     90.00000001	      0.00000000	      0.00000000	     -7.77259114	    -10.06885677	      3.00216533	     35.23592036	     90.00000001	      0.00000000	      0.00000000
      1.67000000	      7.28570732	      1.06400386	     -6.56010256	      0.49754302	      0.98624675	      0.31779668	     -5.33092248	      1.78939410	     -6.18234486	     12.11670889	     -3.76982967	      0.21147646	     21.06920824	     17.60323236	     -7.51326650	     10.82410707	     -0.74969014	    -20.52717559	     48.35364506	     -7.97580921	      0.84393031	     12.57010539	     -5.23483370	     -7.51326650	    -20.92073376	     -2.20589547	      1.15179837	      2.81413207	    -10.89149380	      8.76349960	     37.34206441	     90.00000001	      0.00000000	      0.00000000	     -8.50794947	     -9.84610730	      2.94795865	     34.92211981	     90.00000001	      0.00000000	      0.00000000
